<?xml version="1.0" encoding="UTF-8"?>
<svg width="40px" height="40px" viewBox="0 0 40 40" version="1.1" xmlns="http://www.w3.org/2000/svg" xmlns:xlink="http://www.w3.org/1999/xlink">
    <!-- Generator: Sketch 49.1 (51147) - http://www.bohemiancoding.com/sketch -->
    <title>chat-alt</title>
    <desc>Created with Sketch.</desc>
    <defs></defs>
    <g id="小程序新设计" stroke="none" stroke-width="1" fill="none" fill-rule="evenodd">
        <g id="鹰眼" transform="translate(-261.000000, -1240.000000)">
            <g id="chat-alt" transform="translate(261.000000, 1240.000000)">
                <path d="M20,0 C8.96,0 0,8 0,18 C0.060468977,22.8626206 2.18923979,27.4693 5.85333333,30.6666667 L5.33333333,38.88 C5.31437786,39.2749887 5.51824964,39.6473176 5.861244,39.8441176 C6.20423836,40.0409176 6.62856269,40.0290292 6.96,39.8133333 L13.96,35.1466667 C15.924012,35.7098662 17.9568338,35.997064 20,36 C31.04,36 40,28 40,18 C40,8 31.04,0 20,0 Z" id="Shape" fill="#8B97A6" fill-rule="nonzero"></path>
                <path d="M11.3333333,21.3333333 C9.49238417,21.3333333 8,19.8409492 8,18 C8,16.1590508 9.49238417,14.6666667 11.3333333,14.6666667 C13.1742825,14.6666667 14.6666667,16.1590508 14.6666667,18 C14.6666667,18.884055 14.3154772,19.7319013 13.6903559,20.3570226 C13.0652347,20.9821439 12.2173883,21.3333333 11.3333333,21.3333333 Z" id="Path" fill="#BDC6CF"></path>
                <path d="M20,21.3333333 C18.1590508,21.3333333 16.6666667,19.8409492 16.6666667,18 C16.6666667,16.1590508 18.1590508,14.6666667 20,14.6666667 C21.8409492,14.6666667 23.3333333,16.1590508 23.3333333,18 C23.3333333,19.8409492 21.8409492,21.3333333 20,21.3333333 Z" id="Path" fill="#BDC6CF"></path>
                <path d="M28.6666667,21.3333333 C26.8257175,21.3333333 25.3333333,19.8409492 25.3333333,18 C25.3333333,16.1590508 26.8257175,14.6666667 28.6666667,14.6666667 C30.5076158,14.6666667 32,16.1590508 32,18 C32,19.8409492 30.5076158,21.3333333 28.6666667,21.3333333 Z" id="Path" fill="#FFFFFF"></path>
            </g>
        </g>
    </g>
</svg>