<?xml version="1.0" encoding="UTF-8"?>
<svg width="32px" height="32px" viewBox="0 0 32 32" version="1.1" xmlns="http://www.w3.org/2000/svg" xmlns:xlink="http://www.w3.org/1999/xlink">
    <!-- Generator: Sketch 49.1 (51147) - http://www.bohemiancoding.com/sketch -->
    <title>circle-03</title>
    <desc>Created with Sketch.</desc>
    <defs></defs>
    <g id="小程序新设计" stroke="none" stroke-width="1" fill="none" fill-rule="evenodd">
        <g id="客户1" transform="translate(-288.000000, -235.000000)" fill-rule="nonzero">
            <g id="Group-2" transform="translate(286.000000, 232.000000)">
                <g id="circle-03" transform="translate(0.000000, 1.000000)">
                    <g id="Group" transform="translate(18.000000, 18.000000) rotate(-97.115374) translate(-18.000000, -18.000000) translate(2.000000, 2.000000)">
                        <path d="M16,32 C7.17773,32 0,24.82227 0,16 C0,7.17773 7.17773,0 16,0 C24.82227,0 32,7.17773 32,16 C32,24.82227 24.82227,32 16,32 Z M16,4 C9.3833,4 4,9.3833 4,16 C4,22.6167 9.3833,28 16,28 C22.6167,28 28,22.6167 28,16 C28,9.3833 22.6167,4 16,4 Z" id="Shape" fill="#E0E0E0"></path>
                        <path d="M32,16 L28,16 C28,9.3833 22.6167,4 16,4 L16,0 C24.82227,0 32,7.17773 32,16 Z" id="Shape" fill="#A4A4A4"></path>
                    </g>
                </g>
            </g>
        </g>
    </g>
</svg>