<?xml version="1.0" encoding="UTF-8"?>
<svg width="40px" height="40px" viewBox="0 0 40 40" version="1.1" xmlns="http://www.w3.org/2000/svg" xmlns:xlink="http://www.w3.org/1999/xlink">
    <!-- Generator: Sketch 49.1 (51147) - http://www.bohemiancoding.com/sketch -->
    <title>飞鹰,鹰</title>
    <desc>Created with Sketch.</desc>
    <defs></defs>
    <g id="小程序新设计" stroke="none" stroke-width="1" fill="none" fill-rule="evenodd">
        <g id="鹰眼" transform="translate(-74.000000, -1240.000000)">
            <g id="飞鹰,鹰" transform="translate(74.000000, 1240.000000)">
                <path d="M25.1790105,0.714312113 C18.2624415,-1.13900911 11.2205342,0.876926405 6.35120196,5.43503094 L9.43101922,7.05791878 C13.4528132,3.7753576 18.9402314,2.40640131 24.3380267,3.85276327 C33.2562628,6.24243961 38.5482495,15.4084095 36.1586178,24.326601 C33.768986,33.2447926 24.6030607,38.5367793 15.6848246,36.1471476 C10.6843575,34.807263 8.90737176,30.2991868 12.7076055,27.1016559 C15.2564182,24.9567704 19.9114582,24.5946671 22.7955319,25.0933896 C26.0971769,25.6638995 28.50888,26.8655597 28.2337244,28.8233518 C29.8885821,27.9240462 31.6542424,25.4532634 31.1918596,23.404912 C30.7809765,21.5848092 28.6683731,19.9820308 27.286174,18.8745415 C26.0423777,15.6910114 18.8823555,12.1097519 11.1848634,8.2614071 C10.5216094,7.9298024 9.85438702,7.59628035 9.18662959,7.26079647 C9.19073172,7.25731856 9.19492305,7.25388527 9.19906976,7.25040736 L6.10132793,5.67331194 C3.59585521,8.10133442 1.69446758,11.2173129 0.725826885,14.8323706 C-2.12810501,25.483316 4.19298449,36.4317114 14.8438854,39.2856433 C25.4948308,42.1395752 36.4432262,35.8184857 39.2971581,25.1675403 C42.15109,14.5165948 35.8299559,3.56824401 25.1790105,0.714312113 Z" id="Shape" fill="#4A8CF2" fill-rule="nonzero"></path>
                <path d="M23.6564914,18.1678583 C21.0692434,20.4335786 17.6360622,17.7912192 16.8705221,14.3875111 C19.2306809,15.4691836 21.5759025,16.630625 23.6564914,18.1678583 Z" id="Path" fill="#A3C5F8"></path>
            </g>
        </g>
    </g>
</svg>