<?xml version="1.0" encoding="UTF-8"?>
<svg width="40px" height="40px" viewBox="0 0 40 40" version="1.1" xmlns="http://www.w3.org/2000/svg" xmlns:xlink="http://www.w3.org/1999/xlink">
    <!-- Generator: Sketch 49.1 (51147) - http://www.bohemiancoding.com/sketch -->
    <title>编辑</title>
    <desc>Created with Sketch.</desc>
    <defs></defs>
    <g id="小程序新设计" stroke="none" stroke-width="1" fill="none" fill-rule="evenodd">
        <g id="我的" transform="translate(-644.000000, -186.000000)">
            <g id="编辑" transform="translate(644.000000, 186.000000)">
                <path d="M7.87027286,4.87619098 C5.73894416,4.87619098 3.99629631,6.60964227 3.99629631,8.75389512 L3.99629631,32.1220975 C3.99629631,34.255452 5.73894416,35.9889588 7.87027286,35.9889588 L31.2265092,35.9889588 C33.3577823,35.9889588 35.089598,34.2554519 35.089598,32.1220975 L35.089598,16.7654149 L39.0973936,12.8877108 L39.0973936,33.5441114 C39.0973936,37.1109898 36.0777706,40.0000011 32.5143165,40.0000011 L6.44959075,40.0000011 C2.88641444,40.0000011 -5.46875e-07,37.1109898 -5.46875e-07,33.5441114 L-5.46875e-07,7.73172879 C-5.46875e-07,4.16507281 2.88641444,0.875935859 6.44959075,0.875935859 L27.0858943,0.875935859 L23.2228055,4.8764134 L7.87027286,4.8764134 L7.87027286,4.87619098 Z" id="Shape" fill="#4A8CF2" fill-rule="nonzero"></path>
                <polygon id="Path" fill="#A3C5F8" points="22.1571411 23.8659762 13.4987849 26.321444 15.9741881 17.7100138"></polygon>
                <polygon id="Path" fill="#A3C5F8" points="23.0233823 22.9993339 16.8289305 16.8544368 30.4383708 3.32078336 36.6328226 9.4652357"></polygon>
                <path d="M39.4302471,6.68743211 L37.5762778,8.5321468 L31.3821037,2.37618445 L33.2358508,0.531469766 C33.9243331,-0.146230469 35.0008297,-0.17987082 35.6338178,0.453902344 L39.5077388,4.29841094 C40.1406715,4.93157246 40.107064,6.00973191 39.4302471,6.68743211 Z" id="Path" fill="#A3C5F8"></path>
            </g>
        </g>
    </g>
</svg>