<?xml version="1.0" encoding="UTF-8"?>
<svg width="26px" height="32px" viewBox="0 0 26 32" version="1.1" xmlns="http://www.w3.org/2000/svg" xmlns:xlink="http://www.w3.org/1999/xlink">
    <!-- Generator: Sketch 49.1 (51147) - http://www.bohemiancoding.com/sketch -->
    <title>女性</title>
    <desc>Created with Sketch.</desc>
    <defs></defs>
    <g id="小程序新设计" stroke="none" stroke-width="1" fill="none" fill-rule="evenodd">
        <g id="客户详情页-无标签" transform="translate(-272.000000, -158.000000)" fill="#F95F62" fill-rule="nonzero">
            <g id="女性" transform="translate(272.000000, 158.000000)">
                <path d="M25.6391384,24.6998549 C25.7473668,25.0189107 25.8339866,25.4283013 25.8990902,25.9282084 C25.9641938,26.4279792 25.9965374,26.9331547 25.9965374,27.4435077 C25.9965374,27.9540878 25.9586876,28.4326488 25.8828027,28.8793269 C25.8069642,29.3259596 25.6932295,29.6554614 25.5414598,29.868241 C25.4332314,30.0172093 25.1297383,30.17676 24.6315359,30.3468928 C24.1331485,30.5167985 23.5101062,30.6763491 22.7625019,30.8252721 C22.0149438,30.9742405 21.1859946,31.1178042 20.2760707,31.2559634 C19.3657767,31.3941225 18.4503928,31.5162947 17.5292713,31.6227527 C16.608196,31.7289835 15.7255259,31.8142316 14.8803355,31.8781336 C14.0351451,31.9420356 13.298507,31.9737368 12.6699585,31.9737368 C11.738426,31.9737368 10.6222712,31.9098802 9.32223457,31.782485 C8.02196657,31.6548627 6.75968719,31.4953575 5.53553538,31.303924 C4.31129102,31.1123997 3.23321743,30.9155616 2.30131476,30.7137276 C1.3694583,30.5116665 0.806152292,30.3363106 0.611304087,30.1873422 C0.394430807,30.0172094 0.226605012,29.5014518 0.107225221,28.639933 C-0.011923193,27.7785505 0.0261117322,26.6674187 0.221145012,25.3060837 C0.351167169,24.5192308 0.68149753,23.923766 1.21241373,23.5198254 C1.74356127,23.1155215 2.35559091,22.7910611 3.04891912,22.5466257 C3.74233989,22.3020541 4.46269051,22.0894108 5.21047994,21.9084687 C5.95808431,21.7277991 6.61351641,21.4566131 7.17696123,21.0950467 C7.5884976,20.8396658 7.90823185,20.6004989 8.13584006,20.377228 C8.36330944,20.1540025 8.53682662,19.9305953 8.65583621,19.7073244 C8.77503093,19.4839172 8.84540945,19.2501095 8.86715693,19.0053108 C8.88871934,18.7608754 8.88871934,18.5003624 8.86715693,18.2237717 L6.07172642,17.8091126 C5.68156734,17.5539588 5.3349495,17.1603734 5.03159529,16.6288106 C4.77164349,16.1821779 4.5332078,15.5706353 4.31661215,14.7943192 C4.09997021,14.0179576 3.99155672,13.0130568 3.99155672,11.7794803 C3.99155672,10.7585925 4.04564779,9.66862526 4.15406128,8.50953298 C4.26252107,7.35025904 4.5277478,6.24435031 4.95029672,5.19167055 C5.37298447,4.13880912 6.00134785,3.19240557 6.83561826,2.35236913 C7.66984237,1.51215099 8.80205329,0.889980849 10.2321584,0.485858619 C11.0557864,0.209358735 11.8790442,0.0711996006 12.7025335,0.0711996006 C12.9407378,0.049808111 13.168346,0.0338666519 13.3850342,0.0232844605 C13.6016298,0.0127022691 13.8293306,0.00729759778 14.0676737,0.00729759778 C15.1295523,0.00729759778 16.0827861,0.21998633 16.9280228,0.645454602 C17.7730281,1.07074121 18.509805,1.6290094 19.1383997,2.32025911 C19.7668094,3.01150882 20.2922193,3.78787036 20.7147219,4.64902582 C21.1372709,5.51059005 21.4785675,6.38255476 21.7385656,7.26523797 C21.9985174,8.14778492 22.1773094,8.99858525 22.274988,9.81741191 C22.3722502,10.636284 22.3994577,11.3327112 22.3561941,11.9069208 C22.3128379,12.8002317 22.1773557,13.5978939 21.9499326,14.2997258 C21.7223244,15.0015577 21.489395,15.6077865 21.2511444,16.1182757 C20.9694451,16.7137406 20.6551246,17.2453943 20.3082754,17.7132368 L17.0905736,18.2237715 C17.0470324,18.7978903 17.1772397,19.3666952 17.4805013,19.9305497 C17.7838093,20.4941772 18.4557139,20.9885887 19.4956137,21.4140571 C20.0157487,21.6267004 20.5955273,21.81282 21.2346256,21.9723252 C21.8740015,22.1318759 22.4915837,22.3177684 23.0876035,22.5305934 C23.6834383,22.7432822 24.2143544,23.019782 24.6802132,23.3602293 C25.1460258,23.7001316 25.4656213,24.1467643 25.6391384,24.6998549 Z" id="Shape"></path>
            </g>
        </g>
    </g>
</svg>