<?xml version="1.0" encoding="UTF-8"?>
<svg width="38px" height="38px" viewBox="0 0 38 38" version="1.1" xmlns="http://www.w3.org/2000/svg" xmlns:xlink="http://www.w3.org/1999/xlink">
    <!-- Generator: Sketch 49.1 (51147) - http://www.bohemiancoding.com/sketch -->
    <title>应用欢迎</title>
    <desc>Created with Sketch.</desc>
    <defs></defs>
    <g id="小程序新设计" stroke="none" stroke-width="1" fill="none" fill-rule="evenodd">
        <g id="我的" transform="translate(-31.000000, -683.000000)">
            <g id="应用欢迎" transform="translate(30.000000, 682.000000)">
                <g id="icon-background-40" fill="#D8D8D8" opacity="0">
                    <rect id="Rectangle-3" x="0" y="0" width="40" height="40"></rect>
                </g>
                <path d="M12.311187,18.1089811 L12.311187,11.0488445 C12.311187,10.1207983 11.5627626,9.37237395 10.6347164,9.37237395 C9.70667017,9.37237395 8.9582458,10.1207983 8.9582458,11.0488445 L8.9582458,28.5170693 C8.9582458,29.4451155 9.70667017,30.1935399 10.6347164,30.1935399 C11.5627626,30.1935399 12.311187,29.4451155 12.311187,28.5170693 L12.311187,21.4619223 L18.3235294,21.4619223 L18.3235294,28.5170693 C18.3235294,29.4451155 19.0719538,30.1935399 20,30.1935399 C20.9280462,30.1935399 21.6764706,29.4451155 21.6764706,28.5170693 L21.6764706,11.0488445 C21.6764706,10.1207983 20.9280462,9.37237395 20,9.37237395 C19.0719538,9.37237395 18.3235294,10.1207983 18.3235294,11.0488445 L18.3235294,18.1089811 L12.311187,18.1089811 Z M36.7148109,1 C37.9771534,1 39,2.02783613 39,3.28518908 L39,36.7148109 C39,37.9771534 37.9721639,39 36.7148109,39 L3.28518908,39 C2.02284664,39 1,37.9721639 1,36.7148109 L1,3.28518908 C1,2.02284664 2.02783613,1 3.28518908,1 L36.7148109,1 Z M29.3652836,30.1935399 C30.2933298,30.1935399 31.0417542,29.4451155 31.0417542,28.5170693 L31.0417542,18.3784139 C31.0417542,17.4503676 30.2933298,16.7019433 29.3652836,16.7019433 C28.4372374,16.7019433 27.688813,17.4503676 27.688813,18.3784139 L27.688813,28.5170693 C27.688813,29.4451155 28.4372374,30.1935399 29.3652836,30.1935399 Z M29.3652836,14.4167542 C30.2933298,14.4167542 31.0417542,13.6683298 31.0417542,12.7402836 L31.0417542,11.0488445 C31.0417542,10.1207983 30.2933298,9.37237395 29.3652836,9.37237395 C28.4372374,9.37237395 27.688813,10.1207983 27.688813,11.0488445 L27.688813,12.7402836 C27.688813,13.6683298 28.4372374,14.4167542 29.3652836,14.4167542 Z" id="Combined-Shape" fill="#4A8CF2" fill-rule="nonzero"></path>
            </g>
        </g>
    </g>
</svg>