<?xml version="1.0" encoding="UTF-8"?>
<svg width="40px" height="40px" viewBox="0 0 40 40" version="1.1" xmlns="http://www.w3.org/2000/svg" xmlns:xlink="http://www.w3.org/1999/xlink">
    <!-- Generator: Sketch 49.1 (51147) - http://www.bohemiancoding.com/sketch -->
    <title>Icon</title>
    <desc>Created with Sketch.</desc>
    <defs></defs>
    <g id="小程序新设计" stroke="none" stroke-width="1" fill="none" fill-rule="evenodd">
        <g id="我的" transform="translate(-30.000000, -505.000000)" fill="#2BA245" fill-rule="nonzero">
            <path d="M50,505 C38.9542484,505 30,513.954248 30,525 C30,536.045752 38.9542484,545 50,545 C61.0457516,545 70,536.045752 70,525 C70,513.954248 61.0457516,505 50,505 Z M61.8300654,523.366013 C60.9150327,524.803922 59.4771242,525.915033 57.7124183,526.437908 C57.6470588,526.437908 57.6470588,526.437908 57.5816993,526.503268 C57.3202614,526.568627 57.0588235,526.633987 56.7320261,526.633987 C55.4901961,526.633987 54.8366013,525.784314 55.1633987,524.803922 C55.4248366,524.084967 56.1437908,523.431373 56.9934641,523.169935 C58.3660131,522.647059 59.2810458,521.535948 59.2810458,520.228758 C59.2810458,518.464052 57.5816993,517.026144 55.4901961,517.026144 C53.3986928,517.026144 51.6993464,518.464052 51.6993464,520.228758 L51.6993464,529.96732 C51.6993464,532.320261 50.3267974,534.346405 48.3006536,535.522876 C47.1895425,536.176471 45.8823529,536.503268 44.5098039,536.503268 C40.5228758,536.503268 37.3202614,533.562092 37.3202614,529.96732 C37.3202614,528.79085 37.6470588,527.745098 38.2352941,526.764706 C39.1503268,525.326797 40.5882353,524.215686 42.3529412,523.69281 C42.3529412,523.69281 42.3529412,523.69281 42.3529412,523.69281 C42.6797386,523.627451 42.9411765,523.562092 43.2679739,523.562092 C44.5098039,523.562092 45.1633987,524.411765 44.8366013,525.392157 C44.5751634,526.111111 43.9215686,526.699346 43.1372549,527.026144 C43.0718954,527.026144 42.9411765,527.091503 42.875817,527.156863 C41.6339869,527.679739 40.7843137,528.72549 40.7843137,530.03268 C40.7843137,531.797386 42.4836601,533.235294 44.5751634,533.235294 C46.6666667,533.235294 48.3660131,531.797386 48.3660131,530.03268 L48.3660131,520.294118 C48.3660131,517.941176 49.7385621,515.915033 51.7647059,514.738562 C52.875817,514.084967 54.1830065,513.75817 55.5555556,513.75817 C59.5424837,513.75817 62.745098,516.699346 62.745098,520.294118 C62.745098,521.339869 62.4183007,522.385621 61.8300654,523.366013 Z" id="Icon"></path>
        </g>
    </g>
</svg>