<?xml version="1.0" encoding="UTF-8"?>
<svg width="26px" height="32px" viewBox="0 0 26 32" version="1.1" xmlns="http://www.w3.org/2000/svg" xmlns:xlink="http://www.w3.org/1999/xlink">
    <!-- Generator: Sketch 49.1 (51147) - http://www.bohemiancoding.com/sketch -->
    <title>男性</title>
    <desc>Created with Sketch.</desc>
    <defs></defs>
    <g id="小程序新设计" stroke="none" stroke-width="1" fill="none" fill-rule="evenodd">
        <g id="客户详情页-有标签" transform="translate(-272.000000, -158.000000)" fill="#108EE9" fill-rule="nonzero">
            <g id="男性" transform="translate(272.000000, 158.000000)">
                <path d="M25.6147709,25.0012618 C25.707645,25.3246098 25.7888986,25.7349375 25.858442,26.2314406 C25.9279405,26.7283458 25.962802,27.2307012 25.962802,27.7390875 C25.962802,28.2472952 25.9222874,28.7268223 25.8410337,29.1773116 C25.7597352,29.6278009 25.6381016,29.9684823 25.4755046,30.1996238 C25.359569,30.3614318 25.0636282,30.5172536 24.5880859,30.6676252 C24.1123641,30.8175947 23.5147843,30.9562617 22.7953915,31.0832243 C22.0761781,31.2103656 21.2754867,31.3316993 20.393766,31.4473147 C19.5120454,31.5627962 18.630235,31.6610782 17.7483349,31.7418035 C16.8665693,31.8225735 16.0079551,31.8804706 15.1726266,31.9149587 C14.3372981,31.9496701 13.6063296,31.9670035 12.979766,31.9670035 C12.3532472,31.9670035 11.6281563,31.9439966 10.8044034,31.8975806 C9.98065052,31.8515668 9.13356696,31.7938037 8.26333219,31.7244255 C7.39314227,31.6550472 6.52882992,31.5742773 5.67035022,31.4818028 C4.81173591,31.3893729 4.0284977,31.2854173 3.32085991,31.1700253 C2.61286316,31.0545438 2.00980969,30.944736 1.51075723,30.8407803 C1.01192912,30.7366907 0.704412651,30.6270615 0.588432175,30.5114013 C0.379487889,30.3495933 0.217115258,29.8356674 0.101134782,28.9692663 C-0.014980253,28.1028205 0.0314119022,26.9764187 0.240401042,25.5902395 C0.356381518,24.8046977 0.675428702,24.2040602 1.19754264,23.7882824 C1.71970147,23.3722812 2.3229344,23.0431257 3.00764532,22.8005476 C3.69195243,22.5579249 4.41139019,22.3442061 5.16542018,22.1593465 C5.91967452,21.9746655 6.57540153,21.6973314 7.13219745,21.3276121 C7.57287829,21.0504567 7.9152562,20.7846483 8.15892733,20.5305892 C8.40273305,20.2764854 8.5766813,20.0223369 8.68108616,19.7680544 C8.78549102,19.5139505 8.83776071,19.2483656 8.83776071,18.9712101 C8.83776071,18.6936973 8.82600564,18.3818751 8.80307873,18.0353414 C8.75664168,17.5269551 8.58821205,17.1342289 8.29819359,16.8570735 C8.00813026,16.5797393 7.68908308,16.2911028 7.34105199,15.990583 C7.15539353,15.8521393 6.99871898,15.6499016 6.87098343,15.3843167 C6.74347224,15.1185084 6.62183859,14.8468478 6.50572351,14.569737 C6.38956358,14.269396 6.28515876,13.9343881 6.19255386,13.5648029 C6.14611681,13.5186103 6.07639393,13.437885 5.98356472,13.3222249 C5.91388669,13.2067434 5.83258824,13.050743 5.73993845,12.8543575 C5.64706434,12.6579721 5.54270438,12.3748304 5.4267688,12.0052898 C5.31060887,11.6355258 5.23541226,11.3065043 5.20055082,11.017555 C5.16564453,10.7287397 5.17134261,10.4804435 5.21777966,10.2725769 C5.24106549,10.0184731 5.2990333,9.798902 5.39190736,9.6142211 C5.39190736,8.8054937 5.43829956,7.9967663 5.53117362,7.18821758 C5.62400287,6.51815723 5.77479989,5.79033386 5.98356467,5.0047921 C6.19255381,4.21925034 6.52887473,3.51470193 6.99306571,2.89065543 C7.41081968,2.31324826 7.86325563,1.83389983 8.35055298,1.45261005 C8.83785037,1.07136498 9.34255602,0.776876136 9.86453535,0.568830865 C10.3866942,0.360964278 10.914551,0.216623673 11.4484201,0.13567498 C11.9821096,0.0549496753 12.4926928,0.0143859864 12.9799902,0.0143859864 C13.5135451,0.060623236 13.9487074,0.124193877 14.2852078,0.204963842 C14.6215286,0.285867874 14.8943183,0.384149915 15.1031279,0.499586663 C15.3119376,0.615068115 15.4917185,0.753690499 15.6427399,0.915587842 C15.7933575,1.07726184 15.950032,1.23893584 16.112629,1.40060983 L16.7738298,1.40060983 C16.982774,1.40060983 17.1857062,1.42946903 17.3829403,1.48723209 C17.5801743,1.54495048 17.7775879,1.65475833 17.9747771,1.81661106 C18.1720112,1.97828505 18.3866984,2.20933728 18.6185696,2.50985705 C19.1524386,3.20292431 19.5469516,3.95942823 19.8021086,4.77963674 C20.0573553,5.59984528 20.2430138,6.3795348 20.3589494,7.11883931 C20.4750644,7.97380396 20.5446078,8.81706412 20.5677142,9.64879847 C20.6141064,9.76445861 20.6490127,9.90294697 20.6722985,10.0647997 C20.6954049,10.2264736 20.7128131,10.4228591 20.7243888,10.6539113 C20.7359644,10.8850082 20.7186907,11.1738235 20.6722985,11.5204018 C20.625682,11.9824169 20.5561386,12.3462839 20.4634888,12.6118688 C20.3706596,12.8776771 20.2660753,13.0799148 20.1501846,13.2183585 C20.0342041,13.3802112 19.9065135,13.4956927 19.7672472,13.5648922 C19.674418,13.9344774 19.5700131,14.2695299 19.4540776,14.5700497 C19.3379625,14.8471157 19.2161494,15.118821 19.0884138,15.3844506 C18.9609026,15.6500356 18.8042281,15.8523179 18.6185247,15.9908957 C18.2241014,16.3142437 17.8993562,16.5859042 17.64393,16.8052966 C17.3887281,17.0247337 17.2146452,17.4001265 17.1217711,17.9316985 C17.0520931,18.2550465 17.0291214,18.5785732 17.0520931,18.9019212 C17.0753789,19.2253139 17.1625101,19.5546928 17.3131276,19.8897006 C17.464149,20.2247531 17.7075958,20.5424276 18.0442756,20.8426793 C18.3807759,21.1430204 18.8506202,21.4088287 19.4540326,21.6397022 C19.9875876,21.8477922 20.5735468,22.0383253 21.2116861,22.2115252 C21.84996,22.3849036 22.4648134,22.5812444 23.0564708,22.8008602 C23.6483524,23.0202526 24.1762093,23.3033942 24.640176,23.6499279 C25.1043672,23.996149 25.4292919,24.4466382 25.6147709,25.0012618 Z M14.4416581,23.8574819 C14.5114258,23.7188149 14.517079,23.5745189 14.4591112,23.4243707 C14.4009191,23.2742225 14.3139674,23.1298819 14.1980318,22.9910361 C14.0820513,22.8525478 13.9428299,22.7023996 13.780233,22.5407256 L12.1791643,22.5407256 C12.0167917,22.7023996 11.8892805,22.8525478 11.7964064,22.9910361 C11.7033977,23.1066963 11.6281562,23.2337928 11.5700089,23.3722812 C11.5119963,23.5109482 11.5178738,23.6380895 11.5876415,23.7535709 C11.7498347,24.0770976 11.8892805,24.360016 12.0050366,24.602862 C12.1211516,24.8452613 12.2488423,25.0359732 12.3879291,25.1746403 C12.3415369,25.3827302 12.2719487,25.6769957 12.1791643,26.0582854 C12.0862902,26.4395305 11.9993385,26.8323014 11.9180849,27.2365534 C11.8368312,27.6410288 11.7672879,28.0222739 11.7093201,28.3802887 C11.6513074,28.7383481 11.6223235,29.0097853 11.6223235,29.1946896 C11.6223235,29.3101711 11.6744137,29.4486147 11.7788186,29.6104674 C11.8834029,29.7723201 12.0050814,29.9398464 12.1444823,30.1130015 C12.2835691,30.28638 12.4286681,30.430676 12.57951,30.5463361 C12.730307,30.6615495 12.8636957,30.7194912 12.9798108,30.7194912 C13.0957913,30.7194912 13.2350575,30.6615495 13.3973853,30.5463361 C13.5599374,30.430676 13.716612,30.2978612 13.8672296,30.147713 C14.0182509,29.9973414 14.1459416,29.8357121 14.2501221,29.6623336 C14.354527,29.4891784 14.4067966,29.3448378 14.4067966,29.2292223 C14.4067966,29.0905553 14.3721147,28.8539635 14.3024367,28.5187323 C14.2328933,28.1836798 14.1574723,27.8085103 14.0761738,27.3925092 C13.9949202,26.9765526 13.9079237,26.5723006 13.8151393,26.1795297 C13.7222652,25.7867589 13.6410116,25.474892 13.5712887,25.2436611 C13.7107345,25.128403 13.8441232,24.9606981 13.9718139,24.7413057 C14.099325,24.5219134 14.2559996,24.2272458 14.4416581,23.8574819 Z" id="Shape"></path>
            </g>
        </g>
    </g>
</svg>