<?xml version="1.0" encoding="UTF-8"?>
<svg width="46px" height="46px" viewBox="0 0 46 46" version="1.1" xmlns="http://www.w3.org/2000/svg" xmlns:xlink="http://www.w3.org/1999/xlink">
    <!-- Generator: Sketch 49.1 (51147) - http://www.bohemiancoding.com/sketch -->
    <title>circle-remove</title>
    <desc>Created with Sketch.</desc>
    <defs></defs>
    <g id="小程序新设计" stroke="none" stroke-width="1" fill="none" fill-rule="evenodd">
        <g id="个人介绍" transform="translate(-262.000000, -465.000000)">
            <g id="circle-remove" transform="translate(262.000000, 465.000000)">
                <path d="M23,0 C10.3,0 0,10.3 0,23 C0,35.7 10.3,46 23,46 C35.7,46 46,35.7 46,23 C46,10.3 35.7,0 23,0 Z" id="Shape" fill="#EB0028" fill-rule="nonzero"></path>
                <path d="M31.7,30.3 C32.1,30.7 32.1,31.3 31.7,31.7 C31.5,31.9 31.3,32 31,32 C30.7,32 30.5,31.9 30.3,31.7 L23,24.4 L15.7,31.7 C15.5,31.9 15.3,32 15,32 C14.7,32 14.5,31.9 14.3,31.7 C13.9,31.3 13.9,30.7 14.3,30.3 L21.6,23 L14.3,15.7 C13.9,15.3 13.9,14.7 14.3,14.3 C14.7,13.9 15.3,13.9 15.7,14.3 L23,21.6 L30.3,14.3 C30.7,13.9 31.3,13.9 31.7,14.3 C32.1,14.7 32.1,15.3 31.7,15.7 L24.4,23 L31.7,30.3 Z" id="Path" fill="#FFFFFF"></path>
            </g>
        </g>
    </g>
</svg>