<?xml version="1.0" encoding="UTF-8"?>
<svg width="39px" height="38px" viewBox="0 0 39 38" version="1.1" xmlns="http://www.w3.org/2000/svg" xmlns:xlink="http://www.w3.org/1999/xlink">
    <!-- Generator: Sketch 49.1 (51147) - http://www.bohemiancoding.com/sketch -->
    <title>settings</title>
    <desc>Created with Sketch.</desc>
    <defs></defs>
    <g id="小程序新设计" stroke="none" stroke-width="1" fill="none" fill-rule="evenodd">
        <g id="我的" transform="translate(-31.000000, -881.000000)">
            <g id="settings" transform="translate(30.000000, 880.000000)">
                <g id="icon-background-40" fill="#D8D8D8" opacity="0">
                    <rect id="Rectangle-3" x="0" y="0" width="40" height="40"></rect>
                </g>
                <path d="M36.7595038,18.0046682 C35.2211209,17.8255365 33.9155782,16.793487 33.3861705,15.3380015 L32.9728372,14.2180015 C32.4310199,12.7851861 32.7345557,11.1697581 33.7595038,10.0313349 C34.9407363,8.72602153 34.8576772,6.71480449 33.5728372,5.51133486 C32.9516556,4.92618397 32.292438,4.38277486 31.5995038,3.88466819 C30.1645419,2.85399619 28.1675333,3.16900052 27.1195038,4.59133486 C26.2006126,5.84492843 24.6510032,6.46993756 23.1195038,6.20466819 L21.8795038,6.00466819 C20.3651814,5.76031383 19.1145644,4.68982691 18.6395038,3.23133486 C18.0975776,1.56165418 16.3202803,0.631535269 14.6395038,1.13800153 C13.8245247,1.39168417 13.0272271,1.69902236 12.2528372,2.05800153 C11.4675513,2.40755371 10.854197,3.05599042 10.5488188,3.8594857 C10.2434405,4.66298099 10.2712829,5.55511241 10.6261705,6.33800153 C11.2221758,7.73436299 10.9963547,9.34590441 10.0395038,10.5246682 L9.23950384,11.4980015 C8.27337033,12.6771988 6.73199154,13.2218193 5.23950384,12.9113349 C3.51952638,12.546096 1.82376808,13.6252149 1.42617051,15.3380015 C1.32839273,15.7557793 1.24394829,16.2002238 1.17283717,16.6713349 C1.10172606,17.142446 1.04839273,17.5868904 1.01283717,18.0046682 C0.857351081,19.7555605 2.13193597,21.3087756 3.87950384,21.4980015 C5.41788683,21.6771332 6.72342947,22.7091828 7.25283717,24.1646682 L7.70617051,25.3380015 C8.24798777,26.770817 7.94445194,28.386245 6.91950384,29.5246682 C5.76209558,30.8085014 5.84508708,32.7825134 7.10617051,33.9646682 C7.73894453,34.5649729 8.41159021,35.1217988 9.11950384,35.6313349 C10.5544658,36.6620069 12.5514744,36.3470025 13.5995038,34.9246682 C14.5183951,33.6710746 16.0680045,33.0460655 17.5995038,33.3113349 L18.8395038,33.5113349 C20.3538263,33.7556892 21.6044432,34.8261762 22.0795038,36.2846682 C22.6214301,37.9543489 24.3987274,38.8844678 26.0795038,38.3780015 C26.8944829,38.1243189 27.6917806,37.8169807 28.4661705,37.4580015 C30.0618661,36.7202284 30.7733057,34.840842 30.0661705,33.2313349 C29.4501307,31.8263259 29.6714419,30.194799 30.6395038,29.0046682 L31.4395038,28.0313349 C32.4056373,26.8521376 33.9470161,26.3075171 35.4395038,26.6180015 C37.1594813,26.9832404 38.8552396,25.9041215 39.2528372,24.1913349 C39.350615,23.7735571 39.4350594,23.3291126 39.5061705,22.8580015 C39.5772816,22.3868904 39.630615,21.942446 39.6661705,21.5246682 C39.7478481,20.6723686 39.4874294,19.822551 38.942258,19.1623434 C38.3970866,18.5021359 37.6118673,18.0856763 36.7595038,18.0046682 Z M25.6928372,20.4446682 C25.2130356,23.4098055 22.4208504,25.4249378 19.4555499,24.9461457 C16.4902494,24.4673536 14.4741668,21.6758545 14.9519494,18.7103912 C15.4297321,15.7449278 18.2205447,13.727895 21.1861705,14.2046682 C22.6167607,14.4305326 23.8982275,15.2175397 24.7466564,16.3913248 C25.5950853,17.5651099 25.9404273,19.0287616 25.7061705,20.4580015 L25.6928372,20.4446682 Z" id="Shape" fill="#4A8CF2" fill-rule="nonzero"></path>
            </g>
        </g>
    </g>
</svg>