<?xml version="1.0" encoding="UTF-8"?>
<svg width="69px" height="90px" viewBox="0 0 69 90" version="1.1" xmlns="http://www.w3.org/2000/svg" xmlns:xlink="http://www.w3.org/1999/xlink">
    <!-- Generator: Sketch 49.1 (51147) - http://www.bohemiancoding.com/sketch -->
    <title>web__暂无记录</title>
    <desc>Created with Sketch.</desc>
    <defs></defs>
    <g id="小程序新设计" stroke="none" stroke-width="1" fill="none" fill-rule="evenodd">
        <g id="管理产品-空数据" transform="translate(-341.000000, -312.000000)" fill="#BDC6CF" fill-rule="nonzero">
            <g id="web__暂无记录" transform="translate(341.000000, 312.000000)">
                <path d="M45.2791342,89.9297219 L22.0195628,89.9297219 C21.6560962,89.9296115 21.3614449,89.6334395 21.3612251,89.2679867 C21.361445,88.9025986 21.6561606,88.6065412 22.0195628,88.6066518 L45.2789351,88.6066518 C45.6423372,88.6065412 45.9370528,88.9025986 45.9372727,89.2679867 C45.9371628,89.6334853 45.6424472,89.9297219 45.2789351,89.9297219 L45.2791342,89.9297219 Z M42.9791342,9.03543938 C42.2312857,9.03543938 41.5548268,8.51956618 41.3782944,7.75581758 L40.0721732,2.11755284 C39.8660693,1.22756396 40.4164762,0.338576196 41.3011299,0.13134594 C42.1862814,-0.0758843159 43.0705368,0.477430478 43.2766407,1.36701891 L44.5826623,7.0057842 C44.7887662,7.89577308 44.2387576,8.78476085 43.3537056,8.9919911 C43.2308835,9.02066432 43.1052234,9.03524021 42.9791342,9.03543938 Z M61.2905195,23.5765962 C61.1821905,23.5765962 61.0726667,23.5661846 60.9627446,23.5435595 L55.318684,22.3975862 C54.4282554,22.2168854 53.8520606,21.3443159 54.0315801,20.4487208 C54.2117965,19.5531257 55.0795238,18.9740823 55.9701515,19.1547831 L61.6144113,20.3006563 C62.5046407,20.4813571 63.0810346,21.354327 62.901316,22.2496218 C62.7432035,23.0348943 62.0573853,23.5766963 61.2905195,23.5766963 L61.2905195,23.5765962 Z M52.2936364,12.2045606 C51.8197965,12.2045606 51.3496407,12.0001335 51.0242554,11.6042937 C50.4458701,10.8998109 50.5445411,9.85695217 51.2447965,9.2753059 L56.0846537,5.25493882 C56.7852078,4.67279199 57.8219004,4.77220245 58.4008831,5.47658509 C58.9798658,6.18066741 58.8805974,7.22332592 58.1804416,7.80557286 L53.3405844,11.8258398 C53.0461865,12.070943 52.6758592,12.2049044 52.2936364,12.2045606 Z M68.1855411,85.2762514 L29.3839437,85.2762514 L56.5818918,75.364238 C58.2667662,74.750356 59.613013,73.5133815 60.3730087,71.881168 C61.1326061,70.2488543 61.2143506,68.4168187 60.6038052,66.7225362 L58.8404719,61.8321023 C58.624013,61.2309344 57.9632857,60.920089 57.3655844,61.1382314 C56.7675844,61.3558732 56.4585281,62.0202113 56.6753853,62.6211791 L58.4381212,67.5115128 C58.8390779,68.6243493 58.7855108,69.8272859 58.2866797,70.8996774 C57.7878485,71.9714683 56.9034935,72.7839711 55.7967056,73.187119 L25.189381,84.3420133 C24.0819957,84.7450612 22.8855974,84.6911012 21.8195325,84.1895439 C20.7534675,83.6875862 19.945381,82.7989989 19.5444242,81.6859622 L2.63275325,34.7727364 C1.80485281,32.4761846 2.98960173,29.9298554 5.2742684,29.0974305 L35.8817922,17.9422358 C36.9885801,17.5390879 38.1849784,17.5934483 39.2514416,18.0950056 C40.3175065,18.5965628 41.1255931,19.4857508 41.5262511,20.5967853 L48.4342165,39.8271524 C48.6502771,40.4288209 49.3101082,40.7401669 49.9088052,40.5229255 C50.5067056,40.3056841 50.8162597,39.6421468 50.6001991,39.0408788 L43.6916364,19.80901 C43.0809913,18.1149277 41.8508398,16.7613237 40.2274978,15.9971746 C38.6039567,15.233426 36.7818788,15.1512347 35.0970043,15.7651168 L4.48908225,26.919911 C1.01050649,28.1878198 -0.793450216,32.0645273 0.467168831,35.5619132 L17.3789394,82.4749388 C18.2015628,84.7567742 20.1280866,86.3206118 22.3340952,86.7813237 C22.4655755,86.8675563 22.6191939,86.9134066 22.7761732,86.9132703 L23.3529654,86.9132703 C23.4664719,86.9188765 23.5798788,86.9232814 23.6941818,86.9232814 C23.8080866,86.9232814 23.9219913,86.9193771 24.0362944,86.9132703 L68.1857403,86.9132703 C68.6355844,86.9132703 68.9998009,86.546663 68.9998009,86.0946607 C68.9998009,85.6426585 68.6353853,85.2761513 68.1856407,85.2761513 L68.1855411,85.2762514 Z M60.1957792,35.7350056 L58.4070563,34.7586207 C57.6926623,34.3694883 56.6698095,34.8762514 56.1215931,35.8915795 L41.2338225,63.4819355 C41.1675108,63.604772 41.1332597,63.7402225 41.1377403,63.8646607 L41.2351169,66.9172525 C41.1888182,66.9202558 41.1424199,66.9297664 41.0970173,66.9472859 L36.4723247,68.6801112 C36.216899,68.7757904 36.0869772,69.0615488 36.1821364,69.3183704 C36.2772955,69.575192 36.5615007,69.7058238 36.8169264,69.6101446 L41.2681732,67.9420912 L41.269368,67.9777308 C41.2803203,68.3143048 41.5555238,68.4644716 41.8417792,68.2898776 L45.3427576,66.1586096 C45.4487965,66.0941379 45.5432857,65.9918242 45.6095974,65.8689878 L60.4972684,38.2783315 C61.0450866,37.263604 60.9103723,36.1245384 60.1958788,35.7350056 L60.1957792,35.7350056 Z M26.9144805,72.2625918 L23.5204372,73.5343048 C23.3977683,73.5802181 23.2982792,73.6732724 23.2438793,73.7929755 C23.1894793,73.9126786 23.1846296,74.0492139 23.2303983,74.1725139 C23.3255831,74.4292839 23.6097416,74.559882 23.8651385,74.464238 L27.2590823,73.1924249 C27.3817539,73.146507 27.4812542,73.0534639 27.5356868,72.9337713 C27.5901193,72.8140786 27.5950236,72.6775447 27.5493203,72.5542158 C27.5037464,72.4307603 27.4111758,72.3306202 27.2920469,72.2759049 C27.1729179,72.2211897 27.0370284,72.2163994 26.914381,72.2625918 L26.9144805,72.2625918 Z M34.0056494,69.6044383 L29.3809567,71.3377642 C29.2582864,71.3836798 29.1587918,71.4767285 29.1043755,71.5964264 C29.0499592,71.7161242 29.0450822,71.8526588 29.0908182,71.9759733 C29.186003,72.2327433 29.4701615,72.3633414 29.7255584,72.2676974 L34.3502511,70.5345717 C34.4730031,70.4887021 34.5725697,70.395626 34.6269971,70.2758662 C34.6814245,70.1561064 34.6862428,70.019498 34.6403896,69.8961624 C34.5947684,69.7727637 34.5022144,69.6726717 34.383129,69.617949 C34.2640435,69.5632264 34.1282029,69.5583657 34.0055498,69.6044383 L34.0056494,69.6044383 Z M20.3935325,61.9342158 C20.187219,61.934309 20.0025888,61.8054394 19.9305455,61.6110567 C19.8355895,61.3542988 19.9653709,61.0687243 20.2205844,60.9728476 L23.1227662,59.8852392 C23.3770521,59.7936964 23.6572899,59.924669 23.7516153,60.1791395 C23.8459407,60.4336101 23.7193142,60.7170493 23.4674675,60.8151724 L20.5653853,61.9027809 C20.5104482,61.9235685 20.4522311,61.9342174 20.3935325,61.9342158 Z M25.7617922,59.9221802 C25.5616623,59.9221802 25.373381,59.7984427 25.299303,59.5986207 C25.2535586,59.4753051 25.2584189,59.3387675 25.3128144,59.2190557 C25.3672098,59.0993438 25.4666827,59.006268 25.589342,58.9603115 L30.2140346,57.2269855 C30.3366678,57.1810223 30.4724381,57.1859252 30.5914758,57.2406157 C30.7105136,57.2953062 30.8030672,57.395304 30.8487749,57.5186096 C30.8946331,57.6419324 30.8898288,57.7785299 30.8354211,57.8982875 C30.7810134,58.0180452 30.6814698,58.1111295 30.5587359,58.1570189 L25.9340433,59.8903448 C25.8789979,59.9112868 25.8206462,59.9220714 25.7617922,59.9221802 Z M32.8528615,57.2646274 C32.6468191,57.2643985 32.462543,57.1356499 32.3904719,56.9415684 C32.3446446,56.8182578 32.3494649,56.6816857 32.4038705,56.5619516 C32.458276,56.4422175 32.557801,56.3491495 32.6805108,56.3032592 L37.3052035,54.5694327 C37.4278493,54.5234745 37.5636304,54.5283916 37.6826703,54.5831018 C37.8017102,54.6378121 37.8942557,54.7378331 37.9399437,54.8611568 C37.985771,54.9844674 37.9809506,55.1210396 37.9265451,55.2407737 C37.8721396,55.3605077 37.7726146,55.4535757 37.6499048,55.4994661 L33.0251126,57.232792 C32.9700479,57.2536645 32.9117089,57.2644467 32.8528615,57.2646274 Z M39.9440303,54.6064739 C39.7051329,54.6065631 39.5004681,54.4346043 39.458112,54.1982068 C39.415756,53.9618094 39.5478701,53.7288476 39.7717792,53.6451057 L44.3963723,51.9118799 C44.519016,51.8658577 44.6548229,51.8707312 44.7738914,51.9254273 C44.89296,51.9801233 44.9855273,52.0801573 45.0312121,52.2035039 C45.0769808,52.3268039 45.0721311,52.4633392 45.0177311,52.5830423 C44.9633311,52.7027454 44.8638421,52.7957997 44.7411732,52.841713 L40.1164805,54.575139 C40.06135,54.59584 40.0029794,54.6064523 39.9441299,54.6064739 L39.9440303,54.6064739 Z" id="Shape"></path>
            </g>
        </g>
    </g>
</svg>